<svg width="32" height="32" viewBox="0 0 32 32" fill="none" xmlns="http://www.w3.org/2000/svg">
<path d="M13.2141 24.0531C13.1531 24.2953 11.6297 30 3.25 30C2.91848 30 2.60054 29.8683 2.36612 29.6339C2.1317 29.3995 2 29.0815 2 28.75C2 20.3703 7.70469 18.8469 7.94687 18.7859C8.26866 18.7055 8.6092 18.7563 8.89358 18.9269C9.17796 19.0976 9.38289 19.3743 9.46328 19.6961C9.54367 20.0179 9.49295 20.3584 9.32226 20.6428C9.15157 20.9272 8.87491 21.1321 8.55312 21.2125C8.4125 21.2516 5.05 22.2344 4.55937 27.4406C9.76562 26.95 10.75 23.5937 10.7906 23.4375C10.8735 23.1161 11.0807 22.8408 11.3665 22.6722C11.6523 22.5036 11.9935 22.4554 12.3148 22.5383C12.6362 22.6212 12.9115 22.8283 13.0801 23.1141C13.2488 23.4 13.2969 23.7411 13.2141 24.0625V24.0531ZM27.7453 13.5219L27 14.2672V23.3812C27.0019 23.7108 26.9382 24.0375 26.8126 24.3422C26.6871 24.6469 26.5022 24.9236 26.2687 25.1562L20.9062 30.5156C20.675 30.7485 20.3999 30.9333 20.0969 31.0594C19.7938 31.1854 19.4688 31.2502 19.1406 31.25C18.8698 31.2499 18.6007 31.2061 18.3438 31.1203C17.9026 30.9744 17.5111 30.708 17.2135 30.3513C16.9158 29.9945 16.7239 29.5617 16.6594 29.1016L15.8203 23.0875L8.9125 16.1797L2.90156 15.3406C2.44085 15.276 2.0073 15.0841 1.6497 14.7865C1.29209 14.489 1.02461 14.0975 0.877348 13.6562C0.730086 13.2149 0.708881 12.7413 0.816121 12.2886C0.923361 11.8359 1.15479 11.4221 1.48437 11.0937L6.84375 5.73124C7.07637 5.49778 7.35309 5.3129 7.65781 5.18736C7.96254 5.06183 8.28918 4.99813 8.61875 4.99999H17.7328L18.4781 4.25468C22.6469 0.0874912 27.6687 -0.0921962 29.6359 0.0249913C30.2454 0.0620303 30.8203 0.320852 31.2521 0.752621C31.6838 1.18439 31.9426 1.75925 31.9797 2.36874C32.0937 4.32968 31.9141 9.35312 27.7469 13.5219H27.7453ZM15.2328 7.49999H8.61875L3.25 12.8656L9.05469 13.675L15.2328 7.49999ZM24.5 16.7672L18.3234 22.9437L19.1359 28.75L24.5 23.3812V16.7672Z" fill="#5B4B23"/>
</svg>
