<svg width="34" height="32" viewBox="0 0 34 32" fill="none" xmlns="http://www.w3.org/2000/svg">
<path d="M3.10735 9.44745L12.8354 1.66504C15.2702 -0.282796 18.7298 -0.282795 21.1646 1.66504L30.8926 9.44745C32.6266 10.8346 33.5561 12.994 33.3717 15.2069L32.2547 28.6102C32.1107 30.3378 30.6665 31.6667 28.9329 31.6667H22.4581C20.1829 31.6667 18.5763 29.4377 19.2958 27.2792L19.7173 26.0148C20.4303 23.8757 18.8381 21.6667 16.5833 21.6667C14.3285 21.6667 12.7363 23.8757 13.4494 26.0148L13.8709 27.2792C14.5903 29.4377 12.9838 31.6667 10.7086 31.6667H5.06711C3.33348 31.6667 1.88926 30.3378 1.74529 28.6101L0.628349 15.2069C0.443945 12.994 1.37341 10.8346 3.10735 9.44745Z" fill="#5B4B23"/>
</svg>
