<svg width="27" height="36" viewBox="0 0 27 36" fill="none" xmlns="http://www.w3.org/2000/svg">
<path d="M12.7384 0.812827C11.9113 1.09992 11.1799 1.73561 10.8313 2.48067L10.6467 2.85662H9.30014C7.78951 2.85662 7.64597 2.89763 7.36571 3.34877C7.23584 3.56067 7.229 3.69738 7.229 6.13763C7.229 8.57788 7.23584 8.71459 7.36571 8.92649C7.4409 9.04953 7.59812 9.20674 7.72116 9.28193C7.93989 9.4118 8.0766 9.41864 13.791 9.41864C19.5054 9.41864 19.6422 9.4118 19.8609 9.28193C19.9839 9.20674 20.1411 9.04953 20.2163 8.92649C20.3462 8.71459 20.353 8.57788 20.353 6.13763C20.353 3.69738 20.3462 3.56067 20.2163 3.34877C19.9361 2.89763 19.7925 2.85662 18.2819 2.85662H16.9353L16.7508 2.48067C16.3953 1.72878 15.6639 1.09308 14.83 0.812827C14.2558 0.6146 13.2989 0.621435 12.7384 0.812827Z" fill="#5B4B23"/>
<path d="M2.08191 5.14647C1.71963 5.28318 1.3095 5.59761 1.07026 5.91887C0.639631 6.50672 0.666973 5.45406 0.666973 20.3621L0.666973 33.951L0.810517 34.3338C1.00191 34.8396 1.49406 35.3318 1.99988 35.5231C2.38267 35.6667 2.3895 35.6667 13.791 35.6667C25.1925 35.6667 25.1994 35.6667 25.5821 35.5231C26.088 35.3318 26.5801 34.8396 26.7715 34.3338L26.915 33.951V20.3553V6.75963L26.7715 6.37685C26.5801 5.87102 26.088 5.37887 25.5821 5.18748C25.2472 5.05761 25.049 5.04394 23.8801 5.04394H22.554L22.5199 6.93735C22.4994 8.48216 22.4652 8.90596 22.3695 9.21355C22.0414 10.2662 21.1801 11.1206 20.1138 11.4487C19.731 11.5649 19.3414 11.5718 13.791 11.5718C8.24747 11.5718 7.85102 11.5649 7.46823 11.4487C6.67532 11.2027 5.97811 10.6627 5.55431 9.96545C5.13051 9.26823 5.09633 9.04267 5.06216 6.93735L5.02798 5.04394L3.6814 5.05077C2.71077 5.05077 2.26646 5.07811 2.08191 5.14647ZM13.2305 13.9984C13.6543 14.2581 13.8594 14.9006 13.6475 15.3176C13.5381 15.5295 9.01304 20.0682 8.78747 20.1913C8.56874 20.3075 8.09709 20.3143 7.89203 20.2118C7.68013 20.1024 5.3219 17.7578 5.2057 17.5391C4.9733 17.0948 5.15785 16.4591 5.60216 16.1857C5.85507 16.0353 6.32671 16.0011 6.56595 16.1242C6.64798 16.1652 7.07861 16.5616 7.52291 16.9923L8.32266 17.792L10.2229 15.9054C11.2619 14.8665 12.1778 13.9778 12.253 13.9368C12.4786 13.8206 12.9844 13.848 13.2305 13.9984ZM21.9252 16.1584C22.6566 16.589 22.6566 17.5596 21.9252 17.9903C21.6928 18.127 21.5834 18.1338 19.2594 18.1338C16.9353 18.1338 16.8259 18.127 16.5935 17.9903C15.7323 17.4913 15.9168 16.2814 16.8875 16.0422C17.0037 16.0148 18.1383 15.9943 19.3961 16.0011C21.5697 16.0148 21.6996 16.0216 21.9252 16.1584ZM13.2305 22.7477C13.6543 23.0075 13.8594 23.65 13.6475 24.067C13.5381 24.2789 9.01304 28.8176 8.78747 28.9406C8.56874 29.0568 8.09709 29.0637 7.89203 28.9611C7.68013 28.8518 5.3219 26.5072 5.2057 26.2885C4.9733 25.8442 5.15785 25.2085 5.60216 24.9351C5.85507 24.7847 6.32671 24.7505 6.56595 24.8735C6.64798 24.9145 7.07861 25.311 7.52291 25.7416L8.32266 26.5414L10.2229 24.6548C11.2619 23.6158 12.1778 22.7272 12.253 22.6862C12.4786 22.57 12.9844 22.5973 13.2305 22.7477ZM21.9252 24.9077C22.6566 25.3383 22.6566 26.309 21.9252 26.7396C21.6928 26.8763 21.5834 26.8832 19.2594 26.8832C16.9353 26.8832 16.8259 26.8763 16.5935 26.7396C15.7323 26.2406 15.9168 25.0307 16.8875 24.7915C17.0037 24.7642 18.1383 24.7437 19.3961 24.7505C21.5697 24.7642 21.6996 24.771 21.9252 24.9077Z" fill="#5B4B23"/>
</svg>
