<svg width="32" height="25" viewBox="0 0 32 25" fill="none" xmlns="http://www.w3.org/2000/svg">
<path d="M16.7262 14.6663C16.4524 14.8744 16.2081 15.1187 16 15.3925C15.7919 15.1187 15.5475 14.8744 15.2738 14.6663C15.5475 14.4582 15.7919 14.2138 16 13.9401C16.2081 14.2138 16.4524 14.4582 16.7262 14.6663Z" fill="#5B4B23"/>
<path fill-rule="evenodd" clip-rule="evenodd" d="M0.731255 11.837L4.45727 23.3344C4.70685 24.1045 5.47339 24.5848 6.27666 24.4842C8.48388 24.2077 12.8648 23.714 16 23.714C19.1353 23.714 23.5162 24.2077 25.7234 24.4842C26.5267 24.5848 27.2932 24.1045 27.5428 23.3344L31.2688 11.837C31.7469 10.3617 30.1277 9.0904 28.808 9.90483L24.9759 12.2698C24.1363 12.7879 23.033 12.4674 22.6017 11.5801L17.499 1.08322C16.891 -0.167468 15.1091 -0.167469 14.5011 1.08321L9.39841 11.5801C8.9671 12.4674 7.86372 12.7879 7.02417 12.2698L3.19204 9.90483C1.87235 9.09039 0.253169 10.3617 0.731255 11.837ZM14.7765 10.5181C15.1968 9.38234 16.8032 9.38234 17.2235 10.5181L17.8052 12.0903C17.9373 12.4474 18.2189 12.7289 18.576 12.861L20.1482 13.4428C21.2839 13.8631 21.2839 15.4695 20.1482 15.8898L18.576 16.4715C18.2189 16.6036 17.9373 16.8852 17.8052 17.2423L17.2235 18.8145C16.8032 19.9502 15.1968 19.9502 14.7765 18.8145L14.1947 17.2423C14.0626 16.8852 13.7811 16.6036 13.424 16.4715L11.8518 15.8898C10.716 15.4695 10.716 13.8631 11.8518 13.4428L13.424 12.861C13.7811 12.7289 14.0626 12.4474 14.1947 12.0903L14.7765 10.5181Z" fill="#5B4B23"/>
</svg>
