<svg width="21" height="24" viewBox="0 0 21 24" fill="none" xmlns="http://www.w3.org/2000/svg">
<path d="M15.8035 0C16.553 0 17.2352 0.287987 17.7456 0.759342L1.76792 16.737C0.704976 16.0592 0 14.8698 0 13.5157V10.4843C0 8.37587 1.7092 6.66667 3.81761 6.66667C4.57398 6.66667 5.3133 6.44199 5.94177 6.02114L14.2103 0.484148C14.6817 0.168509 15.2362 0 15.8035 0Z" fill="#FFF384"/>
<path d="M14.2103 23.5159L6.08619 18.0756L18.6667 5.4951V21.1368C18.6667 22.7181 17.3848 24 15.8035 24C15.2362 24 14.6817 23.8315 14.2103 23.5159Z" fill="#FFF384"/>
<path d="M20.7071 2.04044C21.0976 1.64992 21.0976 1.01675 20.7071 0.626227C20.3166 0.235702 19.6834 0.235702 19.2929 0.626227L1.29289 18.6262C0.902369 19.0168 0.902369 19.6499 1.29289 20.0404C1.68342 20.431 2.31658 20.431 2.70711 20.0404L20.7071 2.04044Z" fill="#FFF384"/>
</svg>
