<svg width="27" height="24" viewBox="0 0 27 24" fill="none" xmlns="http://www.w3.org/2000/svg">
<path d="M0 13.5157V10.4843C0 8.37587 1.7092 6.66667 3.81761 6.66667C4.57398 6.66667 5.3133 6.44199 5.94177 6.02114L14.2103 0.484148C14.6817 0.168509 15.2362 0 15.8035 0C17.3848 0 18.6667 1.2819 18.6667 2.86321V21.1368C18.6667 22.7181 17.3848 24 15.8035 24C15.2362 24 14.6817 23.8315 14.2103 23.5159L5.94177 17.9789C5.3133 17.558 4.57398 17.3333 3.81761 17.3333C1.7092 17.3333 0 15.6241 0 13.5157Z" fill="#FFF384"/>
<path d="M24.1208 18.7832C25.2406 17.3524 26.3333 15.14 26.3333 11.9999C26.3333 8.85973 25.2406 6.64728 24.1208 5.21651C23.5648 4.50616 23.0066 3.99359 22.5812 3.65488C22.3681 3.48529 22.1874 3.35845 22.0552 3.27141C21.9891 3.22787 21.935 3.1942 21.8949 3.17004C21.8749 3.15796 21.8584 3.14825 21.8456 3.14086L21.8293 3.13152L21.8241 3.12857L21.8209 3.12677L21.8188 3.12562C21.336 2.85749 20.7272 3.03153 20.4591 3.51436C20.1918 3.99569 20.3639 4.60218 20.8433 4.87158L20.8616 4.88239C20.8801 4.89359 20.912 4.91329 20.9552 4.94177C21.0418 4.99879 21.1735 5.09063 21.3355 5.21958C21.66 5.47795 22.1018 5.88188 22.5459 6.4492C23.426 7.57376 24.3333 9.36131 24.3333 11.9999C24.3333 14.6384 23.426 16.4259 22.5459 17.5505C22.1018 18.1178 21.66 18.5218 21.3355 18.7801C21.1735 18.9091 21.0418 19.0009 20.9552 19.0579C20.912 19.0864 20.8801 19.1061 20.8616 19.1173L20.8433 19.1281C20.3639 19.3975 20.1918 20.004 20.4591 20.4853C20.7272 20.9682 21.336 21.1422 21.8188 20.8741C21.8293 20.8682 21.8209 20.8729 21.8209 20.8729L21.8233 20.8716L21.8293 20.8682L21.8456 20.8589C21.8584 20.8515 21.8749 20.8418 21.8949 20.8297C21.935 20.8055 21.9891 20.7718 22.0552 20.7283C22.1874 20.6413 22.3681 20.5144 22.5812 20.3448C23.0066 20.0061 23.5648 19.4935 24.1208 18.7832Z" fill="#FFF384"/>
<path d="M20.4855 8.45895C20.0027 8.19082 19.3939 8.36487 19.1258 8.8477C18.8603 9.32564 19.0282 9.927 19.4999 10.1992L19.5073 10.2039C19.521 10.2129 19.5485 10.2319 19.5855 10.2613C19.66 10.3207 19.7685 10.4191 19.8792 10.5605C20.0927 10.8333 20.3333 11.2875 20.3333 11.9999C20.3333 12.7122 20.0927 13.1664 19.8792 13.4392C19.7685 13.5806 19.66 13.679 19.5855 13.7384C19.5485 13.7678 19.521 13.7868 19.5073 13.7958L19.5 13.8005C19.0282 14.0727 18.8603 14.6741 19.1258 15.152C19.3939 15.6348 20.0027 15.8089 20.4855 15.5408L20.4874 15.5397L20.4895 15.5385L20.4941 15.536L20.5047 15.5299L20.5317 15.5139C20.5522 15.5015 20.5776 15.4857 20.6073 15.4661C20.6665 15.4271 20.7432 15.3732 20.8312 15.3031C21.0066 15.1634 21.2315 14.9563 21.4541 14.6719C21.9073 14.0929 22.3333 13.2138 22.3333 11.9999C22.3333 10.786 21.9073 9.90684 21.4541 9.32785C21.2315 9.04339 21.0066 8.83631 20.8312 8.69663C20.7432 8.62656 20.6665 8.57261 20.6073 8.53359C20.5776 8.51406 20.5522 8.49817 20.5317 8.4858L20.5047 8.46983L20.4941 8.46376L20.4895 8.4612L20.4874 8.46004C20.4874 8.46004 20.5317 8.4858 20.5047 8.46983L20.4855 8.45895Z" fill="#FFF384"/>
</svg>
